<svg width="120" height="120" viewBox="0 0 120 120" fill="none" xmlns="http://www.w3.org/2000/svg">
<circle cx="60" cy="60" r="60" fill="url(#paint0_linear_34_25)"/>
<path d="M80.6268 42.7568C79.435 41.5645 78.02 40.6186 76.4626 39.9733C74.9052 39.328 73.2359 38.9958 71.5501 38.9958C69.8643 38.9958 68.195 39.328 66.6376 39.9733C65.0802 40.6186 63.6652 41.5645 62.4735 42.7568L60.0001 45.2301L57.5268 42.7568C55.1195 40.3495 51.8545 38.9971 48.4501 38.9971C45.0457 38.9971 41.7807 40.3495 39.3734 42.7568C36.9662 45.1641 35.6138 48.429 35.6138 51.8334C35.6138 55.2379 36.9662 58.5028 39.3734 60.9101L60.0001 81.5368L80.6268 60.9101C81.8191 59.7183 82.7649 58.3033 83.4103 56.7459C84.0556 55.1885 84.3877 53.5192 84.3877 51.8334C84.3877 50.1476 84.0556 48.4784 83.4103 46.9209C82.7649 45.3635 81.8191 43.9485 80.6268 42.7568Z" stroke="#E3A700" stroke-width="4" stroke-linecap="round" stroke-linejoin="round"/>
<defs>
<linearGradient id="paint0_linear_34_25" x1="120" y1="0" x2="1.43051e-05" y2="120" gradientUnits="userSpaceOnUse">
<stop stop-color="#E3A700" stop-opacity="0.5"/>
<stop offset="1" stop-color="#E3A700" stop-opacity="0.25"/>
</linearGradient>
</defs>
</svg>
