<svg width="120" height="120" viewBox="0 0 120 120" fill="none" xmlns="http://www.w3.org/2000/svg">
<circle cx="60" cy="60" r="60" fill="url(#paint0_linear_34_140)"/>
<path d="M39.63 48.2399L60 60.0233L80.37 48.2399M60 83.5199V59.9999M81 69.3333V50.6666C80.9992 49.8482 80.7831 49.0445 80.3736 48.336C79.964 47.6275 79.3754 47.0391 78.6667 46.6299L62.3333 37.2966C61.6239 36.887 60.8192 36.6714 60 36.6714C59.1808 36.6714 58.3761 36.887 57.6667 37.2966L41.3333 46.6299C40.6246 47.0391 40.036 47.6275 39.6264 48.336C39.2169 49.0445 39.0008 49.8482 39 50.6666V69.3333C39.0008 70.1516 39.2169 70.9554 39.6264 71.6639C40.036 72.3724 40.6246 72.9608 41.3333 73.3699L57.6667 82.7033C58.3761 83.1129 59.1808 83.3285 60 83.3285C60.8192 83.3285 61.6239 83.1129 62.3333 82.7033L78.6667 73.3699C79.3754 72.9608 79.964 72.3724 80.3736 71.6639C80.7831 70.9554 80.9992 70.1516 81 69.3333Z" stroke="#9967F1" stroke-width="4" stroke-linecap="round" stroke-linejoin="round"/>
<defs>
<linearGradient id="paint0_linear_34_140" x1="120" y1="0" x2="1.43051e-05" y2="120" gradientUnits="userSpaceOnUse">
<stop stop-color="#9967F1" stop-opacity="0.5"/>
<stop offset="1" stop-color="#9967F1" stop-opacity="0.25"/>
</linearGradient>
</defs>
</svg>
