<svg width="96" height="96" viewBox="0 0 96 96" fill="none" xmlns="http://www.w3.org/2000/svg">
<path d="M0 27.2047C0 27.2047 0 27.2047 0 27.2047V42.9285C0 49.5559 5.37258 54.9285 12 54.9285H20.4375C27.8234 54.9285 33.532 61.8797 29.0449 67.7464C28.0174 69.0898 26.8675 70.3365 25.606 71.4667C22.0679 74.6363 17.8219 76.7366 13.3133 77.5944C10.8088 78.0709 8.72727 80.0957 8.72727 82.645C8.72727 85.2001 10.8103 87.3035 13.3399 86.9438C20.8917 85.87 27.9527 82.2023 33.4002 76.434C39.9447 69.5041 43.626 60.1082 43.6364 50.3079V20.7222C43.6364 14.0948 38.2638 8.72217 31.6364 8.72217H17.4545C12.8253 8.72217 8.38568 10.6694 5.11232 14.1356C1.83896 17.6017 0 22.3028 0 27.2047C0 27.2047 0 27.2047 0 27.2047Z" fill="#056358"/>
<path d="M69.8183 8.72217C65.1891 8.72217 60.7494 10.6694 57.4761 14.1356C54.2027 17.6017 52.3638 22.3028 52.3638 27.2047V42.9285C52.3638 49.5559 57.7364 54.9285 64.3638 54.9285H72.8013C80.1871 54.9285 85.8957 61.8797 81.4087 67.7464C80.3812 69.0898 79.2313 70.3365 77.9697 71.4667C74.4316 74.6363 70.1857 76.7366 65.677 77.5944C63.1726 78.0709 61.091 80.0957 61.091 82.645C61.091 85.2001 63.1741 87.3035 65.7037 86.9438C73.2555 85.87 80.3165 82.2023 85.764 76.434C92.3085 69.5041 95.9897 60.1082 96.0001 50.3079V20.7222C96.0001 14.0948 90.6276 8.72217 84.0001 8.72217H69.8183Z" fill="#056358"/>
</svg>
